<svg  viewBox="0 0 1200 1300" fill="none" xmlns="http://www.w3.org/2000/svg">
    <g filter="url(#filter0_f_1_2)">
        <ellipse cx="613.149" cy="685.787" rx="390.809" ry="379.688" fill="url(#paint0_linear_1_2)"/>
    </g>
    <g opacity="0.4" filter="url(#filter1_f_1_2)">
        <ellipse cx="613.149" cy="685.787" rx="358.241" ry="347.915" fill="url(#paint1_linear_1_2)"/>
    </g>
    <g opacity="0.3" filter="url(#filter2_f_1_2)">
        <path d="M584.156 -103.773C610.369 222.298 472.553 445.107 442.766 132.142C242.993 235.802 303.292 545.083 151.645 424.541C179.308 675.567 365.754 763.901 262.434 745.068C440.427 910.974 716.104 920.839 830.695 789.011C808.457 789.011 806.274 787.666 806.274 763.901C984.055 730.608 1070.15 613.095 1068.27 532.947C1058.56 555.381 1047.93 593.622 1000.2 599.788C940.533 607.494 1055.58 341.311 979.471 286.337C830.695 439.149 830.695 45.1633 584.156 -103.773Z" fill="url(#paint2_linear_1_2)"/>
    </g>
    <g filter="url(#filter3_f_1_2)">
        <path d="M712.303 105.135C839.954 146.042 842.735 478.364 915.351 303.736C964.674 447.157 869.347 669.829 997.603 556.456C974.207 792.552 816.52 875.633 903.903 857.92C753.365 1013.96 520.21 1023.24 423.294 899.249C442.102 899.249 443.948 897.984 443.948 875.633C293.59 844.32 220.777 733.796 222.366 658.414C230.578 679.515 239.563 715.481 279.934 721.28C330.398 728.528 233.095 478.176 297.466 426.472C360.168 665.19 323.626 350.581 473.37 266.657C505.145 478.344 742.244 293.647 712.303 105.135Z" fill="url(#paint3_linear_1_2)"/>
    </g>
    <g filter="url(#filter4_f_1_2)">
        <path d="M816.353 136.594C841.349 334.073 646.673 260.803 676.695 -39.0355C556.676 49.9291 491.948 200.365 431.645 258.837C395.174 294.202 280.431 265.191 333.149 136.594C208.229 264.573 276.893 441.283 167.929 341.447C111.532 1111.15 1280.06 1164.43 965.798 277.327C912.527 487.543 943.573 210.497 816.353 136.594Z" fill="url(#paint4_radial_1_2)"/>
    </g>
    <g opacity="0.1" filter="url(#filter5_f_1_2)">
        <path d="M622.781 85.2766C506.74 117.018 491.183 424.25 425.172 288.749C291.507 401.516 336.445 562.431 219.854 474.461C-18.1716 1130.51 1323.12 1165.65 986.861 383.984C929.861 569.214 963.08 325.098 826.955 259.978C853.701 433.985 590.658 349.477 622.781 85.2766Z" fill="url(#paint5_linear_1_2)"/>
    </g>
    <g filter="url(#filter6_f_1_2)">
        <path d="M621.49 152.397C527.582 180.741 514.993 455.08 461.573 334.086C353.404 434.78 389.771 578.467 295.418 499.915C102.794 1085.73 1188.24 1117.11 916.123 419.125C869.996 584.524 896.879 366.543 786.719 308.395C808.363 463.773 595.494 388.312 621.49 152.397Z" fill="url(#paint6_linear_1_2)"/>
    </g>
    <mask id="mask0_1_2" style="mask-type:alpha" maskUnits="userSpaceOnUse" x="310" y="405" width="613" height="560">
        <path d="M722.29 418.597C654.885 401.081 584.122 401.081 516.716 418.597L495.754 424.045C382.245 453.542 304.927 558.533 310.441 675.683L311.481 697.769C315.522 783.612 370.412 858.755 450.959 888.713C459.965 892.063 467.628 898.269 472.775 906.384L490.893 934.948C498.448 946.86 510.025 955.668 523.52 959.773L524.554 960.088C527.062 960.85 529.681 961.182 532.299 961.068C545.088 960.512 555.842 951.292 558.344 938.738L558.674 937.085C560.752 926.661 575.516 926.277 578.132 936.579L578.772 939.1C581.991 951.773 592.661 961.17 605.639 962.763L615.834 964.014C618.983 964.4 622.168 964.4 625.317 964.014L634.477 962.89C648.079 961.221 659.262 951.372 662.636 938.089L663.09 936.299C665.833 925.501 681.23 925.663 683.745 936.517L684.317 938.986C687.211 951.477 698.079 960.507 710.889 961.063C713.579 961.18 716.269 960.84 718.846 960.056L719.623 959.819C733.183 955.695 744.723 946.674 751.999 934.511L768.955 906.17C773.73 898.189 780.957 891.964 789.558 888.424C862.769 858.294 912.858 789.605 919.165 710.688L921.194 685.303C930.93 563.479 851.791 452.251 733.508 421.513L722.29 418.597Z" fill="#FFF0D3"/>
    </mask>
    <g mask="url(#mask0_1_2)">
        <g filter="url(#filter7_di_1_2)">
            <path d="M722.29 418.597C654.885 401.081 584.122 401.081 516.716 418.597L495.754 424.045C382.245 453.542 304.927 558.533 310.441 675.683L311.481 697.769C315.522 783.612 370.412 858.755 450.959 888.713C459.965 892.063 467.628 898.269 472.775 906.384L490.893 934.948C498.448 946.86 510.025 955.668 523.52 959.773L524.554 960.088C527.062 960.85 529.681 961.182 532.299 961.068C545.088 960.512 555.842 951.292 558.344 938.738L558.674 937.085C560.752 926.661 575.516 926.277 578.132 936.579L578.772 939.1C581.991 951.773 592.661 961.17 605.639 962.763L615.834 964.014C618.983 964.4 622.168 964.4 625.317 964.014L634.477 962.89C648.079 961.221 659.262 951.372 662.636 938.089L663.09 936.299C665.833 925.501 681.23 925.663 683.745 936.517L684.317 938.986C687.211 951.477 698.079 960.507 710.889 961.063C713.579 961.18 716.269 960.84 718.846 960.056L719.623 959.819C733.183 955.695 744.723 946.674 751.999 934.511L768.955 906.17C773.73 898.189 780.957 891.964 789.558 888.424C862.769 858.294 912.858 789.605 919.165 710.688L921.194 685.303C930.93 563.479 851.791 452.251 733.508 421.513L722.29 418.597Z" fill="url(#paint7_radial_1_2)"/>
        </g>
        <g filter="url(#filter8_f_1_2)">
            <ellipse cx="524.184" cy="428.426" rx="108.028" ry="42.0993" fill="white"/>
        </g>
        <g filter="url(#filter9_f_1_2)">
            <ellipse cx="524.184" cy="428.426" rx="69.1064" ry="27.0071" fill="white"/>
        </g>
        <g opacity="0.4" filter="url(#filter10_f_1_2)">
            <path d="M416.75 811.142C413.736 770.735 442.652 734.945 482.79 729.402L580.391 715.921C599.227 713.32 618.332 713.32 637.168 715.921L734.383 729.348C774.693 734.916 803.676 770.94 800.483 811.508C795.374 876.408 741.218 926.468 676.117 926.468H540.997C475.781 926.468 421.6 876.177 416.75 811.142Z" fill="url(#paint8_linear_1_2)"/>
        </g>
        <g filter="url(#filter11_dd_1_2)">
            <circle cx="465.006" cy="628.993" r="82.2128" fill="url(#paint9_linear_1_2)"/>
        </g>
        <g filter="url(#filter12_dd_1_2)">
            <circle cx="773.999" cy="628.993" r="82.2128" fill="url(#paint10_linear_1_2)"/>
        </g>
        <g filter="url(#filter13_f_1_2)">
            <ellipse rx="73.7749" ry="16.8518" transform="matrix(0.771824 -0.635836 0.664722 0.747091 761.518 922.647)" fill="white"/>
        </g>
        <g filter="url(#filter14_f_1_2)">
            <ellipse rx="25.1695" ry="8.92802" transform="matrix(0.771824 -0.635836 0.664722 0.747091 746.851 944.436)" fill="white"/>
        </g>
        <g filter="url(#filter15_f_1_2)">
            <ellipse cx="656.338" cy="959.663" rx="37.0248" ry="18.9882" transform="rotate(-40.5683 656.338 959.663)" fill="white"/>
        </g>
        <g filter="url(#filter16_f_1_2)">
            <ellipse cx="553.127" cy="964.38" rx="53.2141" ry="18.9882" transform="rotate(-40.5683 553.127 964.38)" fill="white"/>
        </g>
    </g>
    <g filter="url(#filter17_f_1_2)">
        <ellipse cx="587.731" cy="410.156" rx="129.475" ry="72.2837" fill="url(#paint11_linear_1_2)"/>
    </g>
    <defs>
        <filter id="filter0_f_1_2" x="63.4753" y="147.234" width="1099.35" height="1077.11" filterUnits="userSpaceOnUse" color-interpolation-filters="sRGB">
            <feFlood flood-opacity="0" result="BackgroundImageFix"/>
            <feBlend mode="normal" in="SourceGraphic" in2="BackgroundImageFix" result="shape"/>
            <feGaussianBlur stdDeviation="79.4326" result="effect1_foregroundBlur_1_2"/>
        </filter>
        <filter id="filter1_f_1_2" x="96.0427" y="179.007" width="1034.21" height="1013.56" filterUnits="userSpaceOnUse" color-interpolation-filters="sRGB">
            <feFlood flood-opacity="0" result="BackgroundImageFix"/>
            <feBlend mode="normal" in="SourceGraphic" in2="BackgroundImageFix" result="shape"/>
            <feGaussianBlur stdDeviation="79.4326" result="effect1_foregroundBlur_1_2"/>
        </filter>
        <filter id="filter2_f_1_2" x="0.723526" y="-254.695" width="1218.5" height="1285.22" filterUnits="userSpaceOnUse" color-interpolation-filters="sRGB">
            <feFlood flood-opacity="0" result="BackgroundImageFix"/>
            <feBlend mode="normal" in="SourceGraphic" in2="BackgroundImageFix" result="shape"/>
            <feGaussianBlur stdDeviation="75.461" result="effect1_foregroundBlur_1_2"/>
        </filter>
        <filter id="filter3_f_1_2" x="158.794" y="41.5886" width="902.355" height="1006.41" filterUnits="userSpaceOnUse" color-interpolation-filters="sRGB">
            <feFlood flood-opacity="0" result="BackgroundImageFix"/>
            <feBlend mode="normal" in="SourceGraphic" in2="BackgroundImageFix" result="shape"/>
            <feGaussianBlur stdDeviation="31.7731" result="effect1_foregroundBlur_1_2"/>
        </filter>
        <filter id="filter4_f_1_2" x="130.614" y="-74.3686" width="924.277" height="1040.4" filterUnits="userSpaceOnUse" color-interpolation-filters="sRGB">
            <feFlood flood-opacity="0" result="BackgroundImageFix"/>
            <feBlend mode="normal" in="SourceGraphic" in2="BackgroundImageFix" result="shape"/>
            <feGaussianBlur stdDeviation="17.6666" result="effect1_foregroundBlur_1_2"/>
        </filter>
        <filter id="filter5_f_1_2" x="32.4963" y="-73.5887" width="1167.66" height="1201.02" filterUnits="userSpaceOnUse" color-interpolation-filters="sRGB">
            <feFlood flood-opacity="0" result="BackgroundImageFix"/>
            <feBlend mode="normal" in="SourceGraphic" in2="BackgroundImageFix" result="shape"/>
            <feGaussianBlur stdDeviation="79.4326" result="effect1_foregroundBlur_1_2"/>
        </filter>
        <filter id="filter6_f_1_2" x="244.559" y="124.596" width="743.413" height="844.328" filterUnits="userSpaceOnUse" color-interpolation-filters="sRGB">
            <feFlood flood-opacity="0" result="BackgroundImageFix"/>
            <feBlend mode="normal" in="SourceGraphic" in2="BackgroundImageFix" result="shape"/>
            <feGaussianBlur stdDeviation="13.9007" result="effect1_foregroundBlur_1_2"/>
        </filter>
        <filter id="filter7_di_1_2" x="283.951" y="385.326" width="652.349" height="590.098" filterUnits="userSpaceOnUse" color-interpolation-filters="sRGB">
            <feFlood flood-opacity="0" result="BackgroundImageFix"/>
            <feColorMatrix in="SourceAlpha" type="matrix" values="0 0 0 0 0 0 0 0 0 0 0 0 0 0 0 0 0 0 127 0" result="hardAlpha"/>
            <feOffset dx="10.3262" dy="7.14894"/>
            <feGaussianBlur stdDeviation="1.98582"/>
            <feColorMatrix type="matrix" values="0 0 0 0 1 0 0 0 0 0 0 0 0 0 0.12 0 0 0 1 0"/>
            <feBlend mode="normal" in2="BackgroundImageFix" result="effect1_dropShadow_1_2"/>
            <feBlend mode="normal" in="SourceGraphic" in2="effect1_dropShadow_1_2" result="shape"/>
            <feColorMatrix in="SourceAlpha" type="matrix" values="0 0 0 0 0 0 0 0 0 0 0 0 0 0 0 0 0 0 127 0" result="hardAlpha"/>
            <feOffset dx="-26.2128" dy="-20.1343"/>
            <feGaussianBlur stdDeviation="20.1343"/>
            <feComposite in2="hardAlpha" operator="arithmetic" k2="-1" k3="1"/>
            <feColorMatrix type="matrix" values="0 0 0 0 0 0 0 0 0 1 0 0 0 0 0.94 0 0 0 0.31 0"/>
            <feBlend mode="normal" in2="shape" result="effect2_innerShadow_1_2"/>
        </filter>
        <filter id="filter8_f_1_2" x="336.723" y="306.894" width="374.922" height="243.064" filterUnits="userSpaceOnUse" color-interpolation-filters="sRGB">
            <feFlood flood-opacity="0" result="BackgroundImageFix"/>
            <feBlend mode="normal" in="SourceGraphic" in2="BackgroundImageFix" result="shape"/>
            <feGaussianBlur stdDeviation="39.7163" result="effect1_foregroundBlur_1_2"/>
        </filter>
        <filter id="filter9_f_1_2" x="375.645" y="321.986" width="297.078" height="212.879" filterUnits="userSpaceOnUse" color-interpolation-filters="sRGB">
            <feFlood flood-opacity="0" result="BackgroundImageFix"/>
            <feBlend mode="normal" in="SourceGraphic" in2="BackgroundImageFix" result="shape"/>
            <feGaussianBlur stdDeviation="39.7163" result="effect1_foregroundBlur_1_2"/>
        </filter>
        <filter id="filter10_f_1_2" x="297.385" y="594.821" width="622.487" height="450.796" filterUnits="userSpaceOnUse" color-interpolation-filters="sRGB">
            <feFlood flood-opacity="0" result="BackgroundImageFix"/>
            <feBlend mode="normal" in="SourceGraphic" in2="BackgroundImageFix" result="shape"/>
            <feGaussianBlur stdDeviation="59.5745" result="effect1_foregroundBlur_1_2"/>
        </filter>
        <filter id="filter11_dd_1_2" x="339.457" y="521.288" width="268.944" height="274.043" filterUnits="userSpaceOnUse" color-interpolation-filters="sRGB">
            <feFlood flood-opacity="0" result="BackgroundImageFix"/>
            <feColorMatrix in="SourceAlpha" type="matrix" values="0 0 0 0 0 0 0 0 0 0 0 0 0 0 0 0 0 0 127 0" result="hardAlpha"/>
            <feOffset dx="8.92232" dy="31.8654"/>
            <feGaussianBlur stdDeviation="26.1296"/>
            <feColorMatrix type="matrix" values="0 0 0 0 0.758333 0 0 0 0 0.408363 0 0 0 0 0.0853125 0 0 0 0.77 0"/>
            <feBlend mode="normal" in2="BackgroundImageFix" result="effect1_dropShadow_1_2"/>
            <feColorMatrix in="SourceAlpha" type="matrix" values="0 0 0 0 0 0 0 0 0 0 0 0 0 0 0 0 0 0 127 0" result="hardAlpha"/>
            <feOffset dx="-6.37308" dy="-6.37308"/>
            <feGaussianBlur stdDeviation="9.55962"/>
            <feColorMatrix type="matrix" values="0 0 0 0 1 0 0 0 0 1 0 0 0 0 1 0 0 0 0.59 0"/>
            <feBlend mode="normal" in2="effect1_dropShadow_1_2" result="effect2_dropShadow_1_2"/>
            <feBlend mode="normal" in="SourceGraphic" in2="effect2_dropShadow_1_2" result="shape"/>
        </filter>
        <filter id="filter12_dd_1_2" x="630.605" y="521.288" width="268.944" height="274.043" filterUnits="userSpaceOnUse" color-interpolation-filters="sRGB">
            <feFlood flood-opacity="0" result="BackgroundImageFix"/>
            <feColorMatrix in="SourceAlpha" type="matrix" values="0 0 0 0 0 0 0 0 0 0 0 0 0 0 0 0 0 0 127 0" result="hardAlpha"/>
            <feOffset dx="-8.92232" dy="31.8654"/>
            <feGaussianBlur stdDeviation="26.1296"/>
            <feColorMatrix type="matrix" values="0 0 0 0 0.758333 0 0 0 0 0.408363 0 0 0 0 0.0853125 0 0 0 0.77 0"/>
            <feBlend mode="normal" in2="BackgroundImageFix" result="effect1_dropShadow_1_2"/>
            <feColorMatrix in="SourceAlpha" type="matrix" values="0 0 0 0 0 0 0 0 0 0 0 0 0 0 0 0 0 0 127 0" result="hardAlpha"/>
            <feOffset dx="6.37308" dy="-6.37308"/>
            <feGaussianBlur stdDeviation="9.55962"/>
            <feColorMatrix type="matrix" values="0 0 0 0 1 0 0 0 0 1 0 0 0 0 1 0 0 0 0.59 0"/>
            <feBlend mode="normal" in2="effect1_dropShadow_1_2" result="effect2_dropShadow_1_2"/>
            <feBlend mode="normal" in="SourceGraphic" in2="effect2_dropShadow_1_2" result="shape"/>
        </filter>
        <filter id="filter13_f_1_2" x="647.872" y="818.463" width="227.293" height="208.368" filterUnits="userSpaceOnUse" color-interpolation-filters="sRGB">
            <feFlood flood-opacity="0" result="BackgroundImageFix"/>
            <feBlend mode="normal" in="SourceGraphic" in2="BackgroundImageFix" result="shape"/>
            <feGaussianBlur stdDeviation="27.8014" result="effect1_foregroundBlur_1_2"/>
        </filter>
        <filter id="filter14_f_1_2" x="694.759" y="895.32" width="104.182" height="98.2312" filterUnits="userSpaceOnUse" color-interpolation-filters="sRGB">
            <feFlood flood-opacity="0" result="BackgroundImageFix"/>
            <feBlend mode="normal" in="SourceGraphic" in2="BackgroundImageFix" result="shape"/>
            <feGaussianBlur stdDeviation="15.8865" result="effect1_foregroundBlur_1_2"/>
        </filter>
        <filter id="filter15_f_1_2" x="570.01" y="875.987" width="172.655" height="167.352" filterUnits="userSpaceOnUse" color-interpolation-filters="sRGB">
            <feFlood flood-opacity="0" result="BackgroundImageFix"/>
            <feBlend mode="normal" in="SourceGraphic" in2="BackgroundImageFix" result="shape"/>
            <feGaussianBlur stdDeviation="27.8014" result="effect1_foregroundBlur_1_2"/>
        </filter>
        <filter id="filter16_f_1_2" x="455.246" y="871.273" width="195.763" height="186.212" filterUnits="userSpaceOnUse" color-interpolation-filters="sRGB">
            <feFlood flood-opacity="0" result="BackgroundImageFix"/>
            <feBlend mode="normal" in="SourceGraphic" in2="BackgroundImageFix" result="shape"/>
            <feGaussianBlur stdDeviation="27.8014" result="effect1_foregroundBlur_1_2"/>
        </filter>
        <filter id="filter17_f_1_2" x="352.549" y="232.166" width="470.363" height="355.98" filterUnits="userSpaceOnUse" color-interpolation-filters="sRGB">
            <feFlood flood-opacity="0" result="BackgroundImageFix"/>
            <feBlend mode="normal" in="SourceGraphic" in2="BackgroundImageFix" result="shape"/>
            <feGaussianBlur stdDeviation="52.8532" result="effect1_foregroundBlur_1_2"/>
        </filter>
        <linearGradient id="paint0_linear_1_2" x1="613.149" y1="306.099" x2="613.149" y2="1065.48" gradientUnits="userSpaceOnUse">
            <stop stop-color="#50FF76" stop-opacity="0.38"/>
            <stop offset="1" stop-color="#50FFA0" stop-opacity="0"/>
        </linearGradient>
        <linearGradient id="paint1_linear_1_2" x1="613.149" y1="337.873" x2="613.149" y2="664.653" gradientUnits="userSpaceOnUse">
            <stop stop-color="#FFFACE"/>
            <stop offset="1" stop-color="white" stop-opacity="0"/>
        </linearGradient>
        <linearGradient id="paint2_linear_1_2" x1="608.086" y1="-15.7587" x2="608.086" y2="904.478" gradientUnits="userSpaceOnUse">
            <stop stop-color="#A6FFEA" stop-opacity="0.95"/>
            <stop offset="1" stop-color="#F6EB4E" stop-opacity="0"/>
        </linearGradient>
        <linearGradient id="paint3_linear_1_2" x1="894.738" y1="222.695" x2="611.567" y2="1007.85" gradientUnits="userSpaceOnUse">
            <stop stop-color="#FFFBA0" stop-opacity="0.15"/>
            <stop offset="1" stop-color="#3AFFE7" stop-opacity="0.06"/>
        </linearGradient>
        <radialGradient id="paint4_radial_1_2" cx="0" cy="0" r="1" gradientUnits="userSpaceOnUse" gradientTransform="translate(468.184 341.844) rotate(-0.802419) scale(283.602 459.347)">
            <stop stop-color="#EDFFA4" stop-opacity="0.3"/>
            <stop offset="1" stop-color="#B2FF50" stop-opacity="0"/>
        </radialGradient>
        <linearGradient id="paint5_linear_1_2" x1="984.974" y1="311.226" x2="565.083" y2="846.778" gradientUnits="userSpaceOnUse">
            <stop stop-color="#301758"/>
            <stop offset="1" stop-color="#301658"/>
        </linearGradient>
        <linearGradient id="paint6_linear_1_2" x1="914.596" y1="354.156" x2="532.525" y2="795.802" gradientUnits="userSpaceOnUse">
            <stop stop-color="#EDFFA4" stop-opacity="0.3"/>
            <stop offset="1" stop-color="#B2FF50" stop-opacity="0.17"/>
        </linearGradient>
        <radialGradient id="paint7_radial_1_2" cx="0" cy="0" r="1" gradientUnits="userSpaceOnUse" gradientTransform="translate(619.503 472.908) rotate(91.118) scale(508.863 411.242)">
            <stop stop-color="#FFF0D3"/>
            <stop offset="0.420971" stop-color="#FFED48" stop-opacity="0.990923"/>
            <stop offset="0.829897" stop-color="#FFD643" stop-opacity="0.77"/>
            <stop offset="1" stop-color="#C69F17"/>
        </radialGradient>
        <linearGradient id="paint8_linear_1_2" x1="608.779" y1="712" x2="608.779" y2="926.468" gradientUnits="userSpaceOnUse">
            <stop stop-color="#9E4722"/>
            <stop offset="1" stop-color="#BB391C" stop-opacity="0.87"/>
        </linearGradient>
        <linearGradient id="paint9_linear_1_2" x1="465.006" y1="558.573" x2="465.071" y2="725.779" gradientUnits="userSpaceOnUse">
            <stop stop-color="#2E1E65"/>
            <stop offset="1" stop-color="#11082F"/>
        </linearGradient>
        <linearGradient id="paint10_linear_1_2" x1="773.999" y1="558.573" x2="774.064" y2="725.779" gradientUnits="userSpaceOnUse">
            <stop stop-color="#2E1E65"/>
            <stop offset="1" stop-color="#11082F"/>
        </linearGradient>
        <linearGradient id="paint11_linear_1_2" x1="475.414" y1="368.484" x2="531.192" y2="493.514" gradientUnits="userSpaceOnUse">
            <stop stop-color="white" stop-opacity="0.71"/>
            <stop offset="1" stop-color="#FFFFF8" stop-opacity="0.7"/>
        </linearGradient>
    </defs>
</svg>
