<svg width="874" height="879" viewBox="0 0 874 879" fill="none" xmlns="http://www.w3.org/2000/svg">
    <g filter="url(#filter0_f_1_2)">
        <ellipse cx="420.673" cy="476.178" rx="292.135" ry="283.822" fill="url(#paint0_linear_1_2)"/>
    </g>
    <g opacity="0.4" filter="url(#filter1_f_1_2)">
        <ellipse cx="420.673" cy="476.178" rx="267.79" ry="260.071" fill="url(#paint1_linear_1_2)"/>
    </g>
    <g filter="url(#filter2_f_1_2)">
        <path d="M500.254 79C595.675 109.579 597.753 357.994 652.035 227.457C688.905 334.666 617.646 501.117 713.519 416.369C696.031 592.854 578.157 654.958 643.477 641.717C530.948 758.359 356.662 765.295 284.215 672.612C298.275 672.612 299.655 671.666 299.655 654.958C187.26 631.552 132.831 548.933 134.019 492.584C140.158 508.357 146.874 535.243 177.052 539.577C214.775 544.995 142.039 357.853 190.157 319.204C237.028 497.649 209.712 262.474 321.648 199.74C345.4 357.979 522.635 219.916 500.254 79Z" fill="url(#paint2_linear_1_2)"/>
    </g>
    <g filter="url(#filter3_f_1_2)">
        <path d="M550.188 166.285C568.872 313.904 423.349 259.134 445.791 35C356.075 101.502 307.69 213.955 262.613 257.664C235.35 284.099 149.578 262.414 188.986 166.285C95.6062 261.951 146.933 394.045 65.4813 319.416C23.3237 894.779 896.812 934.611 661.899 271.485C622.079 428.625 645.286 221.529 550.188 166.285Z" fill="url(#paint3_radial_1_2)"/>
    </g>
    <g opacity="0.1" filter="url(#filter4_f_1_2)">
        <path d="M441.492 56C354.75 79.7274 343.121 309.387 293.776 208.098C193.86 292.394 227.452 412.679 140.299 346.92C-37.6288 837.329 965.004 863.595 713.647 279.288C671.039 417.75 695.87 235.27 594.115 186.592C614.108 316.665 417.48 253.493 441.492 56Z" fill="url(#paint4_linear_1_2)"/>
    </g>
    <g filter="url(#filter5_f_1_2)">
        <path d="M426.908 77.4616C356.711 98.6487 347.3 303.721 307.368 213.276C226.51 288.547 253.694 395.955 183.165 337.236C39.1759 775.141 850.563 798.595 647.151 276.844C612.67 400.483 632.765 237.538 550.419 194.072C566.598 310.219 407.475 253.811 426.908 77.4616Z" fill="url(#paint5_linear_1_2)"/>
    </g>
    <mask id="mask0_1_2" style="mask-type:alpha" maskUnits="userSpaceOnUse" x="194" y="266" width="458" height="419">
        <path d="M502.258 276.45C451.871 263.356 398.975 263.356 348.589 276.45L332.919 280.522C248.069 302.572 190.273 381.054 194.395 468.625L195.172 485.134C198.193 549.303 239.224 605.474 299.434 627.868C306.166 630.372 311.894 635.011 315.742 641.077L329.285 662.429C334.933 671.333 343.586 677.917 353.674 680.986L354.447 681.221C356.322 681.791 358.279 682.039 360.237 681.954C369.796 681.539 377.835 674.647 379.706 665.262L379.952 664.026C381.505 656.235 392.542 655.948 394.498 663.648L394.976 665.533C397.382 675.006 405.358 682.031 415.06 683.221L422.68 684.156C425.034 684.445 427.415 684.445 429.769 684.156L436.616 683.316C446.784 682.068 455.143 674.706 457.665 664.777L458.005 663.439C460.055 655.367 471.565 655.488 473.444 663.602L473.872 665.448C476.036 674.785 484.159 681.535 493.735 681.951C495.746 682.038 497.757 681.783 499.683 681.198L500.264 681.021C510.4 677.937 519.027 671.194 524.466 662.103L537.14 640.917C540.71 634.951 546.112 630.298 552.542 627.652C607.268 605.13 644.71 553.783 649.425 494.792L650.941 475.816C658.219 384.751 599.062 301.606 510.643 278.629L502.258 276.45Z" fill="#FFF0D3"/>
    </mask>
    <g mask="url(#mask0_1_2)">
        <g filter="url(#filter6_di_1_2)">
            <path d="M502.258 276.45C451.871 263.356 398.975 263.356 348.589 276.45L332.919 280.522C248.069 302.572 190.273 381.054 194.395 468.625L195.172 485.134C198.193 549.303 239.224 605.474 299.434 627.868C306.166 630.372 311.894 635.011 315.742 641.077L329.285 662.429C334.933 671.333 343.586 677.917 353.674 680.986L354.447 681.221C356.322 681.791 358.279 682.039 360.237 681.954C369.796 681.539 377.835 674.647 379.706 665.262L379.952 664.026C381.505 656.235 392.542 655.948 394.498 663.648L394.976 665.533C397.382 675.006 405.358 682.031 415.06 683.221L422.68 684.156C425.034 684.445 427.415 684.445 429.769 684.156L436.616 683.316C446.784 682.068 455.143 674.706 457.665 664.777L458.005 663.439C460.055 655.367 471.565 655.488 473.444 663.602L473.872 665.448C476.036 674.785 484.159 681.535 493.735 681.951C495.746 682.038 497.757 681.783 499.683 681.198L500.264 681.021C510.4 677.937 519.027 671.194 524.466 662.103L537.14 640.917C540.71 634.951 546.112 630.298 552.542 627.652C607.268 605.13 644.71 553.783 649.425 494.792L650.941 475.816C658.219 384.751 599.062 301.606 510.643 278.629L502.258 276.45Z" fill="url(#paint6_radial_1_2)"/>
        </g>
        <g filter="url(#filter7_f_1_2)">
            <ellipse cx="354.171" cy="283.797" rx="80.7527" ry="31.4698" fill="white"/>
        </g>
        <g filter="url(#filter8_f_1_2)">
            <ellipse cx="354.171" cy="283.797" rx="51.658" ry="20.1882" fill="white"/>
        </g>
        <g opacity="0.4" filter="url(#filter9_f_1_2)">
            <path d="M273.862 569.882C271.61 539.677 293.224 512.924 323.228 508.78L396.187 498.704C410.267 496.759 424.547 496.759 438.628 498.704L511.297 508.74C541.43 512.902 563.095 539.831 560.708 570.156C556.889 618.67 516.407 656.09 467.743 656.09H366.739C317.989 656.09 277.488 618.497 273.862 569.882Z" fill="url(#paint7_linear_1_2)"/>
        </g>
        <g filter="url(#filter10_dd_1_2)">
            <circle cx="309.935" cy="433.723" r="61.4552" fill="url(#paint8_linear_1_2)"/>
        </g>
        <g filter="url(#filter11_dd_1_2)">
            <circle cx="540.911" cy="433.724" r="61.4552" fill="url(#paint9_linear_1_2)"/>
        </g>
        <g filter="url(#filter12_f_1_2)">
            <ellipse rx="55.1478" ry="12.5969" transform="matrix(0.771824 -0.635836 0.664722 0.747091 531.582 653.234)" fill="white"/>
        </g>
        <g filter="url(#filter13_f_1_2)">
            <ellipse rx="18.8145" ry="6.67382" transform="matrix(0.771824 -0.635836 0.664722 0.747091 520.617 669.521)" fill="white"/>
        </g>
        <g filter="url(#filter14_f_1_2)">
            <ellipse cx="452.958" cy="680.904" rx="27.6765" ry="14.1939" transform="rotate(-40.5683 452.958 680.904)" fill="white"/>
        </g>
        <g filter="url(#filter15_f_1_2)">
            <ellipse cx="375.806" cy="684.43" rx="39.7783" ry="14.1939" transform="rotate(-40.5683 375.806 684.43)" fill="white"/>
        </g>
    </g>
    <g filter="url(#filter16_f_1_2)">
        <ellipse cx="401.673" cy="270.14" rx="96.7845" ry="54.0331" fill="url(#paint10_linear_1_2)"/>
    </g>
    <defs>
        <filter id="filter0_f_1_2" x="9.78447" y="73.602" width="821.777" height="805.152" filterUnits="userSpaceOnUse" color-interpolation-filters="sRGB">
            <feFlood flood-opacity="0" result="BackgroundImageFix"/>
            <feBlend mode="normal" in="SourceGraphic" in2="BackgroundImageFix" result="shape"/>
            <feGaussianBlur stdDeviation="59.377" result="effect1_foregroundBlur_1_2"/>
        </filter>
        <filter id="filter1_f_1_2" x="34.1291" y="97.353" width="773.088" height="757.65" filterUnits="userSpaceOnUse" color-interpolation-filters="sRGB">
            <feFlood flood-opacity="0" result="BackgroundImageFix"/>
            <feBlend mode="normal" in="SourceGraphic" in2="BackgroundImageFix" result="shape"/>
            <feGaussianBlur stdDeviation="59.377" result="effect1_foregroundBlur_1_2"/>
        </filter>
        <filter id="filter2_f_1_2" x="86.4984" y="31.4984" width="674.523" height="752.306" filterUnits="userSpaceOnUse" color-interpolation-filters="sRGB">
            <feFlood flood-opacity="0" result="BackgroundImageFix"/>
            <feBlend mode="normal" in="SourceGraphic" in2="BackgroundImageFix" result="shape"/>
            <feGaussianBlur stdDeviation="23.7508" result="effect1_foregroundBlur_1_2"/>
        </filter>
        <filter id="filter3_f_1_2" x="37.5879" y="8.58801" width="690.91" height="777.713" filterUnits="userSpaceOnUse" color-interpolation-filters="sRGB">
            <feFlood flood-opacity="0" result="BackgroundImageFix"/>
            <feBlend mode="normal" in="SourceGraphic" in2="BackgroundImageFix" result="shape"/>
            <feGaussianBlur stdDeviation="13.206" result="effect1_foregroundBlur_1_2"/>
        </filter>
        <filter id="filter4_f_1_2" x="0.246017" y="-62.754" width="872.842" height="897.78" filterUnits="userSpaceOnUse" color-interpolation-filters="sRGB">
            <feFlood flood-opacity="0" result="BackgroundImageFix"/>
            <feBlend mode="normal" in="SourceGraphic" in2="BackgroundImageFix" result="shape"/>
            <feGaussianBlur stdDeviation="59.377" result="effect1_foregroundBlur_1_2"/>
        </filter>
        <filter id="filter5_f_1_2" x="145.147" y="56.6797" width="555.712" height="631.147" filterUnits="userSpaceOnUse" color-interpolation-filters="sRGB">
            <feFlood flood-opacity="0" result="BackgroundImageFix"/>
            <feBlend mode="normal" in="SourceGraphic" in2="BackgroundImageFix" result="shape"/>
            <feGaussianBlur stdDeviation="10.391" result="effect1_foregroundBlur_1_2"/>
        </filter>
        <filter id="filter6_di_1_2" x="174.593" y="251.579" width="487.64" height="441.107" filterUnits="userSpaceOnUse" color-interpolation-filters="sRGB">
            <feFlood flood-opacity="0" result="BackgroundImageFix"/>
            <feColorMatrix in="SourceAlpha" type="matrix" values="0 0 0 0 0 0 0 0 0 0 0 0 0 0 0 0 0 0 127 0" result="hardAlpha"/>
            <feOffset dx="7.71901" dy="5.34393"/>
            <feGaussianBlur stdDeviation="1.48442"/>
            <feColorMatrix type="matrix" values="0 0 0 0 1 0 0 0 0 0 0 0 0 0 0.12 0 0 0 1 0"/>
            <feBlend mode="normal" in2="BackgroundImageFix" result="effect1_dropShadow_1_2"/>
            <feBlend mode="normal" in="SourceGraphic" in2="effect1_dropShadow_1_2" result="shape"/>
            <feColorMatrix in="SourceAlpha" type="matrix" values="0 0 0 0 0 0 0 0 0 0 0 0 0 0 0 0 0 0 127 0" result="hardAlpha"/>
            <feOffset dx="-19.5944" dy="-15.0507"/>
            <feGaussianBlur stdDeviation="15.0507"/>
            <feComposite in2="hardAlpha" operator="arithmetic" k2="-1" k3="1"/>
            <feColorMatrix type="matrix" values="0 0 0 0 0 0 0 0 0 1 0 0 0 0 0.94 0 0 0 0.31 0"/>
            <feBlend mode="normal" in2="shape" result="effect2_innerShadow_1_2"/>
        </filter>
        <filter id="filter7_f_1_2" x="214.041" y="192.95" width="280.259" height="181.694" filterUnits="userSpaceOnUse" color-interpolation-filters="sRGB">
            <feFlood flood-opacity="0" result="BackgroundImageFix"/>
            <feBlend mode="normal" in="SourceGraphic" in2="BackgroundImageFix" result="shape"/>
            <feGaussianBlur stdDeviation="29.6885" result="effect1_foregroundBlur_1_2"/>
        </filter>
        <filter id="filter8_f_1_2" x="243.136" y="204.232" width="222.07" height="159.13" filterUnits="userSpaceOnUse" color-interpolation-filters="sRGB">
            <feFlood flood-opacity="0" result="BackgroundImageFix"/>
            <feBlend mode="normal" in="SourceGraphic" in2="BackgroundImageFix" result="shape"/>
            <feGaussianBlur stdDeviation="29.6885" result="effect1_foregroundBlur_1_2"/>
        </filter>
        <filter id="filter9_f_1_2" x="184.636" y="408.18" width="465.317" height="336.976" filterUnits="userSpaceOnUse" color-interpolation-filters="sRGB">
            <feFlood flood-opacity="0" result="BackgroundImageFix"/>
            <feBlend mode="normal" in="SourceGraphic" in2="BackgroundImageFix" result="shape"/>
            <feGaussianBlur stdDeviation="44.5327" result="effect1_foregroundBlur_1_2"/>
        </filter>
        <filter id="filter10_dd_1_2" x="216.084" y="353.212" width="201.039" height="204.851" filterUnits="userSpaceOnUse" color-interpolation-filters="sRGB">
            <feFlood flood-opacity="0" result="BackgroundImageFix"/>
            <feColorMatrix in="SourceAlpha" type="matrix" values="0 0 0 0 0 0 0 0 0 0 0 0 0 0 0 0 0 0 127 0" result="hardAlpha"/>
            <feOffset dx="6.66956" dy="23.8198"/>
            <feGaussianBlur stdDeviation="19.5323"/>
            <feColorMatrix type="matrix" values="0 0 0 0 0.758333 0 0 0 0 0.408363 0 0 0 0 0.0853125 0 0 0 0.77 0"/>
            <feBlend mode="normal" in2="BackgroundImageFix" result="effect1_dropShadow_1_2"/>
            <feColorMatrix in="SourceAlpha" type="matrix" values="0 0 0 0 0 0 0 0 0 0 0 0 0 0 0 0 0 0 127 0" result="hardAlpha"/>
            <feOffset dx="-4.76397" dy="-4.76397"/>
            <feGaussianBlur stdDeviation="7.14595"/>
            <feColorMatrix type="matrix" values="0 0 0 0 1 0 0 0 0 1 0 0 0 0 1 0 0 0 0.59 0"/>
            <feBlend mode="normal" in2="effect1_dropShadow_1_2" result="effect2_dropShadow_1_2"/>
            <feBlend mode="normal" in="SourceGraphic" in2="effect2_dropShadow_1_2" result="shape"/>
        </filter>
        <filter id="filter11_dd_1_2" x="433.722" y="353.212" width="201.039" height="204.851" filterUnits="userSpaceOnUse" color-interpolation-filters="sRGB">
            <feFlood flood-opacity="0" result="BackgroundImageFix"/>
            <feColorMatrix in="SourceAlpha" type="matrix" values="0 0 0 0 0 0 0 0 0 0 0 0 0 0 0 0 0 0 127 0" result="hardAlpha"/>
            <feOffset dx="-6.66956" dy="23.8198"/>
            <feGaussianBlur stdDeviation="19.5323"/>
            <feColorMatrix type="matrix" values="0 0 0 0 0.758333 0 0 0 0 0.408363 0 0 0 0 0.0853125 0 0 0 0.77 0"/>
            <feBlend mode="normal" in2="BackgroundImageFix" result="effect1_dropShadow_1_2"/>
            <feColorMatrix in="SourceAlpha" type="matrix" values="0 0 0 0 0 0 0 0 0 0 0 0 0 0 0 0 0 0 127 0" result="hardAlpha"/>
            <feOffset dx="4.76397" dy="-4.76397"/>
            <feGaussianBlur stdDeviation="7.14595"/>
            <feColorMatrix type="matrix" values="0 0 0 0 1 0 0 0 0 1 0 0 0 0 1 0 0 0 0.59 0"/>
            <feBlend mode="normal" in2="effect1_dropShadow_1_2" result="effect2_dropShadow_1_2"/>
            <feBlend mode="normal" in="SourceGraphic" in2="effect2_dropShadow_1_2" result="shape"/>
        </filter>
        <filter id="filter12_f_1_2" x="446.629" y="575.355" width="169.905" height="155.758" filterUnits="userSpaceOnUse" color-interpolation-filters="sRGB">
            <feFlood flood-opacity="0" result="BackgroundImageFix"/>
            <feBlend mode="normal" in="SourceGraphic" in2="BackgroundImageFix" result="shape"/>
            <feGaussianBlur stdDeviation="20.7819" result="effect1_foregroundBlur_1_2"/>
        </filter>
        <filter id="filter13_f_1_2" x="481.678" y="632.807" width="77.8777" height="73.4292" filterUnits="userSpaceOnUse" color-interpolation-filters="sRGB">
            <feFlood flood-opacity="0" result="BackgroundImageFix"/>
            <feBlend mode="normal" in="SourceGraphic" in2="BackgroundImageFix" result="shape"/>
            <feGaussianBlur stdDeviation="11.8754" result="effect1_foregroundBlur_1_2"/>
        </filter>
        <filter id="filter14_f_1_2" x="388.427" y="618.355" width="129.062" height="125.098" filterUnits="userSpaceOnUse" color-interpolation-filters="sRGB">
            <feFlood flood-opacity="0" result="BackgroundImageFix"/>
            <feBlend mode="normal" in="SourceGraphic" in2="BackgroundImageFix" result="shape"/>
            <feGaussianBlur stdDeviation="20.7819" result="effect1_foregroundBlur_1_2"/>
        </filter>
        <filter id="filter15_f_1_2" x="302.638" y="614.832" width="146.335" height="139.196" filterUnits="userSpaceOnUse" color-interpolation-filters="sRGB">
            <feFlood flood-opacity="0" result="BackgroundImageFix"/>
            <feBlend mode="normal" in="SourceGraphic" in2="BackgroundImageFix" result="shape"/>
            <feGaussianBlur stdDeviation="20.7819" result="effect1_foregroundBlur_1_2"/>
        </filter>
        <filter id="filter16_f_1_2" x="225.871" y="137.09" width="351.603" height="266.1" filterUnits="userSpaceOnUse" color-interpolation-filters="sRGB">
            <feFlood flood-opacity="0" result="BackgroundImageFix"/>
            <feBlend mode="normal" in="SourceGraphic" in2="BackgroundImageFix" result="shape"/>
            <feGaussianBlur stdDeviation="39.5085" result="effect1_foregroundBlur_1_2"/>
        </filter>
        <linearGradient id="paint0_linear_1_2" x1="420.673" y1="192.356" x2="420.673" y2="760" gradientUnits="userSpaceOnUse">
            <stop stop-color="#50FF76" stop-opacity="0.38"/>
            <stop offset="1" stop-color="#50FFA0" stop-opacity="0"/>
        </linearGradient>
        <linearGradient id="paint1_linear_1_2" x1="420.673" y1="216.107" x2="420.673" y2="460.38" gradientUnits="userSpaceOnUse">
            <stop stop-color="#FFFACE"/>
            <stop offset="1" stop-color="white" stop-opacity="0"/>
        </linearGradient>
        <linearGradient id="paint2_linear_1_2" x1="636.626" y1="166.878" x2="424.952" y2="753.792" gradientUnits="userSpaceOnUse">
            <stop stop-color="#FFFBA0" stop-opacity="0.15"/>
            <stop offset="1" stop-color="#3AFFE7" stop-opacity="0.06"/>
        </linearGradient>
        <radialGradient id="paint3_radial_1_2" cx="0" cy="0" r="1" gradientUnits="userSpaceOnUse" gradientTransform="translate(289.926 319.713) rotate(-0.802419) scale(211.997 343.368)">
            <stop stop-color="#EDFFA4" stop-opacity="0.3"/>
            <stop offset="1" stop-color="#B2FF50" stop-opacity="0"/>
        </radialGradient>
        <linearGradient id="paint4_linear_1_2" x1="712.236" y1="224.9" x2="398.362" y2="625.232" gradientUnits="userSpaceOnUse">
            <stop stop-color="#301758"/>
            <stop offset="1" stop-color="#301658"/>
        </linearGradient>
        <linearGradient id="paint5_linear_1_2" x1="646.009" y1="228.279" x2="360.406" y2="558.415" gradientUnits="userSpaceOnUse">
            <stop stop-color="#EDFFA4" stop-opacity="0.3"/>
            <stop offset="1" stop-color="#B2FF50" stop-opacity="0.17"/>
        </linearGradient>
        <radialGradient id="paint6_radial_1_2" cx="0" cy="0" r="1" gradientUnits="userSpaceOnUse" gradientTransform="translate(425.423 317.048) rotate(91.118) scale(380.382 307.409)">
            <stop stop-color="#FFF0D3"/>
            <stop offset="0.420971" stop-color="#FFED48" stop-opacity="0.990923"/>
            <stop offset="0.829897" stop-color="#FFD643" stop-opacity="0.77"/>
            <stop offset="1" stop-color="#C69F17"/>
        </radialGradient>
        <linearGradient id="paint7_linear_1_2" x1="417.407" y1="495.773" x2="417.407" y2="656.09" gradientUnits="userSpaceOnUse">
            <stop stop-color="#9E4722"/>
            <stop offset="1" stop-color="#BB391C" stop-opacity="0.87"/>
        </linearGradient>
        <linearGradient id="paint8_linear_1_2" x1="309.935" y1="381.083" x2="309.983" y2="506.073" gradientUnits="userSpaceOnUse">
            <stop stop-color="#2E1E65"/>
            <stop offset="1" stop-color="#11082F"/>
        </linearGradient>
        <linearGradient id="paint9_linear_1_2" x1="540.911" y1="381.083" x2="540.96" y2="506.073" gradientUnits="userSpaceOnUse">
            <stop stop-color="#2E1E65"/>
            <stop offset="1" stop-color="#11082F"/>
        </linearGradient>
        <linearGradient id="paint10_linear_1_2" x1="317.714" y1="238.989" x2="359.409" y2="332.451" gradientUnits="userSpaceOnUse">
            <stop stop-color="white" stop-opacity="0.71"/>
            <stop offset="1" stop-color="#FFFFF8" stop-opacity="0.7"/>
        </linearGradient>
    </defs>
</svg>

